<?xml version="1.0" encoding="utf-8"?>
<!-- Generator: Adobe Illustrator 18.0.0, SVG Export Plug-In . SVG Version: 6.00 Build 0)  -->
<!DOCTYPE svg PUBLIC "-//W3C//DTD SVG 1.1//EN" "http://www.w3.org/Graphics/SVG/1.1/DTD/svg11.dtd">
<svg version="1.1" id="Warstwa_1" xmlns="http://www.w3.org/2000/svg" xmlns:xlink="http://www.w3.org/1999/xlink" x="0px" y="0px"
	 viewBox="0 0 99.1 14" enable-background="new 0 0 99.1 14" xml:space="preserve">
<path id="path-8" fill="#FFFFFF" d="M96.3,13.5l-5.1-5.1C90.8,8,90.6,7.5,90.7,7c-0.1-0.5,0.1-1,0.5-1.4l5.1-5.1
	c0.7-0.7,1.7-0.6,2.4,0c0.7,0.7,0.6,1.7,0,2.4l0,0L94.5,7l4.2,4.2c0.6,0.7,0.6,1.7,0,2.4C98,14.2,96.9,14.2,96.3,13.5L96.3,13.5z
	 M59.7,13.5c-0.9,0-1.7-0.7-1.7-1.7c0,0,0,0,0,0v-10c0-0.9,0.7-1.7,1.6-1.7c0.9,0,1.7,0.7,1.7,1.6c0,0,0,0.1,0,0.1v8.3h6.4L76,1.9
	c0.7-0.6,1.8-0.6,2.4,0l8.3,8.3c0.6,0.7,0.6,1.7,0,2.4c-0.6,0.6-1.7,0.6-2.3,0l-7.1-7.1l-7.5,7.5c-0.5,0.3-1.1,0.5-1.7,0.6
	L59.7,13.5z M50.4,12.5l-7.1-7.1l-7.1,7.1c-0.7,0.7-1.8,0.7-2.4,0l-7.1-7.1l-7.1,7.1c-0.7,0.7-1.8,0.7-2.4,0L10,5.4l-7.1,7.1
	c-0.7,0.7-1.7,0.7-2.4,0c-0.7-0.7-0.7-1.7,0-2.4l0,0l8.3-8.3c0.7-0.6,1.8-0.6,2.4,0L18.3,9l7.1-7.1c0.7-0.6,1.8-0.6,2.4,0L35,9
	l7.1-7.1c0.7-0.6,1.8-0.6,2.4,0l8.3,8.3c0.7,0.7,0.6,1.7,0,2.4C52.1,13.1,51.1,13.1,50.4,12.5z"/>
</svg>
