<svg xmlns="http://www.w3.org/2000/svg" viewBox="0 0 99.1 14"><path fill="#FFF" d="M96.3 13.5l-5.1-5.1c-.4-.4-.6-.9-.5-1.4-.1-.5.1-1 .5-1.4L96.3.5c.7-.7 1.7-.6 2.4 0 .7.7.6 1.7 0 2.4L94.5 7l4.2 4.2c.6.7.6 1.7 0 2.4-.7.6-1.8.6-2.4-.1zm-36.6 0c-.9 0-1.7-.7-1.7-1.7v-10c0-.9.7-1.7 1.6-1.7.9 0 1.7.7 1.7 1.6v8.4h6.4L76 1.9c.7-.6 1.8-.6 2.4 0l8.3 8.3c.6.7.6 1.7 0 2.4-.6.6-1.7.6-2.3 0l-7.1-7.1-7.5 7.5c-.5.3-1.1.5-1.7.6l-8.4-.1zm-9.3-1l-7.1-7.1-7.1 7.1c-.7.7-1.8.7-2.4 0l-7.1-7.1-7.1 7.1c-.7.7-1.8.7-2.4 0L10 5.4l-7.1 7.1c-.7.7-1.7.7-2.4 0s-.7-1.7 0-2.4l8.3-8.3c.7-.6 1.8-.6 2.4 0L18.3 9l7.1-7.1c.7-.6 1.8-.6 2.4 0L35 9l7.1-7.1c.7-.6 1.8-.6 2.4 0l8.3 8.3c.7.7.6 1.7 0 2.4-.7.5-1.7.5-2.4-.1z"/></svg>